<svg width="1099" height="1150" viewBox="0 0 1099 1150" fill="none" xmlns="http://www.w3.org/2000/svg">
<path opacity="0.5" d="M318.343 75.6942C198.405 176.217 179.819 366.298 98.5892 506.527C70.3124 555.322 33.7749 598.992 14.7119 653.123C-29.0536 777.026 31.1802 917.572 111.801 1015.98C150.245 1062.93 195.149 1105.94 249.478 1125.72C291.258 1140.94 336.056 1141.57 380.033 1141.97L1150.5 1149.9C1236.52 1150.77 1332.1 1147.62 1393.95 1081.21C1436.57 1035.48 1453.89 968.692 1468.58 904.944C1486.64 826.613 1503 741.546 1474.91 666.94C1442.82 581.582 1361.67 533.21 1311.26 459.555C1229.45 340.223 1231.33 159.731 1127.14 64.4664C1078.51 20.0041 1014.33 2.56788 951.792 -6.15022C833.892 -22.6089 722.215 8.4592 606.433 4.12657C507.464 0.42798 400.447 6.87409 318.343 75.6942Z" fill="#E7ECFF"/>
</svg>
